<svg xmlns="http://www.w3.org/2000/svg" viewBox="0 0 336 39">
    <path d="M258.487,12.98431a1.50728,1.50728,0,0,1-.40181-.053,1.46653,1.46653,0,0,1-.88879-.68548,1.51756,1.51756,0,0,1-.14947-.358,1.55723,1.55723,0,0,1-.05143-.39973,1.486,1.486,0,0,1,.053-.39973,1.45841,1.45841,0,0,1,.38252-.65739,1.46032,1.46032,0,0,1,.30216-.23037,1.51871,1.51871,0,0,1,1.514.00161,1.43424,1.43424,0,0,1,.30055.23277,1.48415,1.48415,0,0,1,.3777.65658,1.54626,1.54626,0,0,1,.05143.39652,1.532,1.532,0,0,1-.2009.76173,1.44645,1.44645,0,0,1-.23144.30261,1.48608,1.48608,0,0,1-.30055.232,1.434,1.434,0,0,1-.3568.14769A1.53713,1.53713,0,0,1,258.487,12.98431Zm0-.26328a1.19318,1.19318,0,0,0,.32787-.04415,1.24863,1.24863,0,0,0,.29251-.12441,1.1835,1.1835,0,0,0,.2459-.19264,1.291,1.291,0,0,0,.3118-.54421,1.2506,1.2506,0,0,0-.05143-.80427,1.21386,1.21386,0,0,0-1.12666-.74969,1.18313,1.18313,0,0,0-.47574.09632,1.23087,1.23087,0,0,0-.38734.26328,1.25744,1.25744,0,0,0-.26037.3901,1.18867,1.18867,0,0,0-.09483.47678,1.223,1.223,0,0,0,.0434.32669,1.23794,1.23794,0,0,0,.12215.29458,1.2534,1.2534,0,0,0,.18965.25043,1.19292,1.19292,0,0,0,.24751.19264,1.23672,1.23672,0,0,0,.29091.12441A1.17846,1.17846,0,0,0,258.487,12.721Zm-.55449-.47438V10.671h.54a1.27667,1.27667,0,0,1,.25233.02247.47911.47911,0,0,1,.19126.07706.36006.36006,0,0,1,.12215.14528.52159.52159,0,0,1,.04339.22635.5.5,0,0,1-.08036.301.43378.43378,0,0,1-.21376.15491l.43877.64856h-.38413l-.39538-.59478h-.19608v.59478Zm.31823-.86929h.21055a.733.733,0,0,0,.14626-.012.207.207,0,0,0,.08679-.03773.133.133,0,0,0,.04179-.06823.44.44,0,0,0,.01125-.10114.33864.33864,0,0,0-.01286-.09712.145.145,0,0,0-.04179-.06582.20165.20165,0,0,0-.08358-.03773.6.6,0,0,0-.1334-.012h-.225Z"
          style="fill:#ff943a"/>
    <polygon
            points="71.442 6.031 67.7 6.031 63.088 26.036 58.446 6.196 58.407 6.031 54.256 6.031 49.647 25.881 45.11 6.031 41.313 6.031 47.34 31.78 47.38 31.945 51.676 31.945 56.285 12.266 60.839 31.78 60.878 31.945 65.246 31.945 71.378 6.297 71.442 6.031"
            style="fill:#d10"/>
    <path d="M79.70516,11.64686a8.03811,8.03811,0,0,0-6.4277,2.61523c-1.48092,1.72662-2.23141,4.37009-2.23141,7.85636,0,3.425.74732,6.04024,2.22191,7.77272a8.01848,8.01848,0,0,0,6.4372,2.62482,7.89722,7.89722,0,0,0,6.41134-2.65412c1.45506-1.75059,2.19288-4.35571,2.19288-7.74342,0-3.42394-.73465-6.05036-2.18338-7.80735A7.87811,7.87811,0,0,0,79.70516,11.64686ZM83.40693,27.61a4.93744,4.93744,0,0,1-7.49327-.01545,9.982,9.982,0,0,1-1.19434-5.47606c0-2.55663.41641-4.43828,1.23762-5.59167a4.30394,4.30394,0,0,1,3.74822-1.70584,4.209,4.209,0,0,1,3.68541,1.69785c.82649,1.14806,1.24554,3.03184,1.24554,5.59966C84.63611,24.6021,84.22233,26.44965,83.40693,27.61Z"
          style="fill:#d10"/>
    <rect x="91.86422" y="4.09736" width="3.56402" height="27.84807" style="fill:#d10"/>
    <path d="M110.82147,4.26251a9.39624,9.39624,0,0,0-3.7878-.73572c-2.24724,0-3.84691.58122-4.75467,1.72875a8.50545,8.50545,0,0,0-1.35056,5.28108v1.66269H98.11912v3.08192h2.80931v16.6642h3.564V15.28123h4.25012V12.19932h-4.25012V10.53662a5.613,5.613,0,0,1,.57632-3.08245A2.42576,2.42576,0,0,1,107.1065,6.719a5.79562,5.79562,0,0,1,1.38962.196,6.02959,6.02959,0,0,1,1.28512.46136l.22483.11774.99221-3.15437Z"
          style="fill:#d10"/>
    <path d="M120.51426,11.90471a5.62908,5.62908,0,0,0-3.34289,1.07987,21.051,21.051,0,0,0-2.42668,2.0436V12.19932h-3.564V31.94543h3.564V18.47023a12.18738,12.18738,0,0,1,2.91856-2.29985,5.79377,5.79377,0,0,1,2.614-.6313,3.6114,3.6114,0,0,1,1.37484.204l.23644.10229.76685-3.45111-.1425-.07725A4.20169,4.20169,0,0,0,120.51426,11.90471Z"
          style="fill:#d10"/>
    <path d="M137.18363,13.20673c-1.226-1.03512-3.26056-1.55987-6.04718-1.55987a10.59452,10.59452,0,0,0-4.55148.87636,5.99909,5.99909,0,0,0-2.76815,2.54971l-.09869.1806,2.93281,1.80493.10978-.19019a4.34152,4.34152,0,0,1,1.43553-1.4,5.29817,5.29817,0,0,1,2.86684-.64728,5.96618,5.96618,0,0,1,3.28536.77567,3.19048,3.19048,0,0,1,1.13523,2.85763v.74211l-4.51823.40648a13.04339,13.04339,0,0,0-4.33193,1.11769,5.689,5.689,0,0,0-2.3301,2.1624,6.67187,6.67187,0,0,0-.80485,3.41541,6.52136,6.52136,0,0,0,1.54056,4.46119,5.56028,5.56028,0,0,0,4.38259,1.75645,6.839,6.839,0,0,0,3.44369-.87423,17.87088,17.87088,0,0,0,2.61826-1.85554v2.15921h3.5635V18.60129C139.04718,16.0665,138.42019,14.25144,137.18363,13.20673Zm-6.795,16.04355a3.61476,3.61476,0,0,1-2.432-.70216,2.9769,2.9769,0,0,1-.78426-2.32329,3.00778,3.00778,0,0,1,1.19012-2.59765,8.85188,8.85188,0,0,1,4.28971-1.18375l2.83148-.27223v4.37275q-.56445.4483-1.15159.92111a10.51843,10.51843,0,0,1-1.27826.88382,9.172,9.172,0,0,1-1.33684.64835A3.6889,3.6889,0,0,1,130.3886,29.25028Z"
          style="fill:#d10"/>
    <path d="M167.979,14.69042a4.49,4.49,0,0,0-1.62975-2.25936,5.01026,5.01026,0,0,0-2.93123-.7842,6.107,6.107,0,0,0-3.5693,1.12462,19.46687,19.46687,0,0,0-2.803,2.42611,4.57438,4.57438,0,0,0-1.53264-2.60351,5.12236,5.12236,0,0,0-3.222-.94722,6.012,6.012,0,0,0-3.402,1.06708,15.52326,15.52326,0,0,0-2.44093,2.034V12.19932h-3.564V31.94543h3.564V18.17562a14.76857,14.76857,0,0,1,2.77765-2.2519,4.66038,4.66038,0,0,1,2.28049-.78952,2.56929,2.56929,0,0,1,1.5147.35374,2.05151,2.05151,0,0,1,.6671,1.2285,19.8648,19.8648,0,0,1,.21375,3.63437V31.94543h3.564V18.17989a17.97128,17.97128,0,0,1,2.99351-2.39255,4.19891,4.19891,0,0,1,2.02874-.65314,2.88559,2.88559,0,0,1,1.54372.32444,1.81224,1.81224,0,0,1,.675,1.14913,20.48138,20.48138,0,0,1,.21269,3.74305V31.94543h3.564V18.841A13.24924,13.24924,0,0,0,167.979,14.69042Z"
          style="fill:#d10"/>
    <path d="M184.25936,6.03069h-4.6829l-8.77416,25.91474H174.703l2.15277-6.62892h9.97906l2.18919,6.62892h4.01L184.309,6.17612Zm1.37589,15.76226h-7.61676l3.80838-11.51524Z"
          style="fill:#ff7d00"/>
    <rect x="195.41144" y="4.09736" width="3.56402" height="27.84807" style="fill:#ff7d00"/>
    <path d="M212.19956,11.64686a7.71849,7.71849,0,0,0-3.33761.73838,10.03243,10.03243,0,0,0-2.2863,1.47463V12.19932h-3.564V39h3.564V30.604a8.10628,8.10628,0,0,0,5.1315,1.912,6.8405,6.8405,0,0,0,5.8176-2.89492,12.81461,12.81461,0,0,0,2.09313-7.68695c0-3.27211-.65179-5.82714-1.938-7.59425A6.42041,6.42041,0,0,0,212.19956,11.64686Zm3.745,10.36132c0,2.50549-.446,4.36316-1.32417,5.52188a3.9777,3.9777,0,0,1-3.33286,1.72023,7.38274,7.38274,0,0,1-4.71192-1.96635V17.25718a10.92071,10.92071,0,0,1,2.26044-1.63392,5.66835,5.66835,0,0,1,2.76129-.72879C214.52227,14.89446,215.94461,17.22148,215.94461,22.00818Z"
          style="fill:#ff7d00"/>
    <path d="M232.69948,11.64686a7.20214,7.20214,0,0,0-3.66483,1.06921,15.68309,15.68309,0,0,0-2.77976,2.06385V4.09736h-3.564V31.94543h3.564V18.18415a18.55455,18.55455,0,0,1,2.993-2.15708,5.67491,5.67491,0,0,1,2.70376-.89288,3.06047,3.06047,0,0,1,1.70469.38677,2.1298,2.1298,0,0,1,.79957,1.21678,16.0776,16.0776,0,0,1,.256,3.61306V31.94543h3.564V18.841c0-2.56835-.45177-4.42656-1.34317-5.52295A5.15923,5.15923,0,0,0,232.69948,11.64686Z"
          style="fill:#ff7d00"/>
    <path d="M255.07773,13.20673c-1.226-1.03512-3.26056-1.55987-6.04718-1.55987a10.59452,10.59452,0,0,0-4.55148.87636,5.99909,5.99909,0,0,0-2.76815,2.54971l-.09869.1806,2.93281,1.80493.10978-.19019a4.34152,4.34152,0,0,1,1.43553-1.4,5.29817,5.29817,0,0,1,2.86684-.64728,5.96618,5.96618,0,0,1,3.28536.77567,3.19048,3.19048,0,0,1,1.13523,2.85763v.74211l-4.51823.40648a13.04339,13.04339,0,0,0-4.33193,1.11769,5.689,5.689,0,0,0-2.3301,2.1624,6.67187,6.67187,0,0,0-.80485,3.41541,6.52136,6.52136,0,0,0,1.54056,4.46119,5.56028,5.56028,0,0,0,4.38259,1.75645,6.839,6.839,0,0,0,3.44369-.87423,17.87087,17.87087,0,0,0,2.61826-1.85554v2.15921h3.5635V18.60129C256.94128,16.0665,256.31429,14.25144,255.07773,13.20673Zm-6.795,16.04355a3.61476,3.61476,0,0,1-2.432-.70216,2.9769,2.9769,0,0,1-.78426-2.32329,3.00778,3.00778,0,0,1,1.19012-2.59765,8.85188,8.85188,0,0,1,4.28971-1.18375l2.83148-.27223v4.37275q-.56445.4483-1.15159.92111a10.51843,10.51843,0,0,1-1.27826.88382,9.172,9.172,0,0,1-1.33684.64835A3.6889,3.6889,0,0,1,248.2827,29.25028Z"
          style="fill:#ff7d00"/>
    <polygon
            points="36.971 24.875 29.102 26.548 29.903 34.373 22.531 31.211 18.469 38 14.406 31.209 7.033 34.37 7.835 26.547 -0.033 24.87 5.326 19 -0.031 13.128 7.836 11.455 7.037 3.63 14.409 6.792 18.469 0.001 22.532 6.792 29.905 3.632 29.104 11.456 36.971 13.132 31.614 19.003 36.971 24.875"
            style="fill:#f16850"/>
    <polygon points="18.469 11.861 14.409 6.79 7.037 3.627 11.425 9.414 18.469 11.861" style="fill:#fd694f"/>
    <polygon points="7.836 11.452 -0.032 13.126 5.325 18.998 11.631 16.713 7.836 11.452" style="fill:#ff3413"/>
    <polygon points="11.425 9.414 7.037 3.627 7.836 11.452 11.631 16.713 11.425 9.414" style="fill:#dc1d23"/>
    <polygon points="22.532 6.79 18.469 0 14.409 6.79 18.469 11.861 22.532 6.79" style="fill:#ff9281"/>
    <polygon points="31.613 19.001 36.971 13.13 29.104 11.455 25.307 16.713 31.613 19.001" style="fill:#ff8b79"/>
    <polygon points="25.307 16.713 29.104 11.455 29.905 3.629 25.513 9.414 25.307 16.713" style="fill:#fd694f"/>
    <polygon points="25.513 9.414 29.905 3.629 22.532 6.79 18.469 11.861 25.513 9.414" style="fill:#ef5240"/>
    <polygon points="29.866 22.499 36.97 24.872 31.613 19.001 25.307 16.713 29.866 22.499" style="fill:#ff482c"/>
    <polygon points="11.631 16.713 5.325 18.998 -0.033 24.868 7.072 22.499 11.631 16.713" style="fill:#ec2101"/>
    <polygon points="18.469 30.586 18.469 37.998 22.53 31.209 22.695 24.564 18.469 30.586" style="fill:#d21c22"/>
    <polygon points="29.866 22.499 22.695 24.564 29.102 26.546 36.97 24.872 29.866 22.499" style="fill:#c90901"/>
    <polygon points="22.53 31.209 29.902 34.371 29.102 26.546 22.695 24.564 22.53 31.209" style="fill:#ec2101"/>
    <polygon points="7.072 22.499 -0.033 24.868 7.835 26.544 14.243 24.564 7.072 22.499" style="fill:#b6171e"/>
    <polygon points="14.243 24.564 14.406 31.208 18.469 37.998 18.469 30.586 14.243 24.564" style="fill:#b4151b"/>
    <polygon points="7.835 26.544 7.033 34.368 14.406 31.208 14.243 24.564 7.835 26.544" style="fill:#d21c22"/>
    <polygon points="25.307 16.713 25.513 9.414 18.469 11.861 18.469 18.963 25.307 16.713" style="fill:#e63320"/>
    <polygon points="18.469 11.861 11.425 9.414 11.631 16.713 18.469 18.963 18.469 11.861" style="fill:#ff4527"/>
    <polygon points="14.243 24.564 18.469 30.586 22.695 24.564 18.469 18.963 14.243 24.564" style="fill:#ff9281"/>
    <polygon points="18.469 18.963 22.695 24.564 29.866 22.499 25.307 16.713 18.469 18.963" style="fill:#fd684d"/>
    <polygon points="11.631 16.713 7.072 22.499 14.243 24.564 18.469 18.963 11.631 16.713" style="fill:#fd745c"/>
    <path d="M269.08105,18.13895a2.32953,2.32953,0,0,1-.34082.4126,1.88633,1.88633,0,0,1-.44531.31445,2.28456,2.28456,0,0,1-.5752.19971,3.42865,3.42865,0,0,1-.72168.06934,3.02936,3.02936,0,0,1-1.19922-.21289,2.07063,2.07063,0,0,1-.80957-.60205,2.45826,2.45826,0,0,1-.458-.92725,5.03433,5.03433,0,0,1,.00781-2.42676,2.538,2.538,0,0,1,.46582-.9375,2.084,2.084,0,0,1,.7998-.59717,3.2294,3.2294,0,0,1,2.38086.03467,1.85354,1.85354,0,0,1,.82129.74609l-.89551.60205a1.30089,1.30089,0,0,0-.458-.43945,1.39385,1.39385,0,0,0-.6875-.15186,1.20777,1.20777,0,0,0-1.05762.47656,2.62725,2.62725,0,0,0-.33789,1.5,4.14334,4.14334,0,0,0,.07422.83105,1.66316,1.66316,0,0,0,.24219.60742,1.07816,1.07816,0,0,0,.44531.373,1.60485,1.60485,0,0,0,.67676.12793,1.96647,1.96647,0,0,0,.34863-.0293,1.19173,1.19173,0,0,0,.30664-.09863,1.20805,1.20805,0,0,0,.27148-.18115,1.754,1.754,0,0,0,.25-.27686Z"
          style="fill:#ff943a"/>
    <path d="M275.09082,16.18875a4.715,4.715,0,0,1-.14648,1.22559,2.45939,2.45939,0,0,1-.458.92676,2.02208,2.02208,0,0,1-.79687.58887,3.40113,3.40113,0,0,1-2.333-.00244,2.03252,2.03252,0,0,1-.80176-.59131,2.46664,2.46664,0,0,1-.459-.92725,5.17061,5.17061,0,0,1,.00293-2.45605,2.51986,2.51986,0,0,1,.46094-.93506,2.00859,2.00859,0,0,1,.79883-.59131,3.00991,3.00991,0,0,1,1.16992-.20557,2.97078,2.97078,0,0,1,1.16113.20557,2.0089,2.0089,0,0,1,.79688.59131,2.48645,2.48645,0,0,1,.458.93506A4.79635,4.79635,0,0,1,275.09082,16.18875Zm-1.1875,0a2.71166,2.71166,0,0,0-.32227-1.481,1.17222,1.17222,0,0,0-1.05273-.48486,1.19671,1.19671,0,0,0-1.0625.48486,2.63549,2.63549,0,0,0-.333,1.481,2.64182,2.64182,0,0,0,.32715,1.46,1.19063,1.19063,0,0,0,1.06836.49023,1.16839,1.16839,0,0,0,1.04688-.49023A2.64113,2.64113,0,0,0,273.90332,16.18875Z"
          style="fill:#ff943a"/>
    <path d="M283.03516,18.97V15.67752q0-.416-.02441-.6875a1.30155,1.30155,0,0,0-.09863-.43164.45187.45187,0,0,0-.21289-.22656.88.88,0,0,0-.373-.06641.95422.95422,0,0,0-.35156.07178,2.12384,2.12384,0,0,0-.36523.19189,3.2221,3.2221,0,0,0-.3623.27734q-.17871.15674-.33789.32227V18.97h-1.14551V15.67752q0-.42627-.02637-.70068a1.34752,1.34752,0,0,0-.10156-.43164.4266.4266,0,0,0-.21094-.21826.87754.87754,0,0,0-.35937-.06152.99882.99882,0,0,0-.373.07715,2.06054,2.06054,0,0,0-.37793.20264,3.32618,3.32618,0,0,0-.35937.27979q-.17432.15454-.31738.30371V18.97h-1.14551V13.38113h1.14551V14.159a3.88836,3.88836,0,0,1,.38379-.373,2.93971,2.93971,0,0,1,.418-.2959,2.16434,2.16434,0,0,1,.4502-.19678,1.66341,1.66341,0,0,1,.49023-.07227,1.58741,1.58741,0,0,1,.96973.25342,1.27417,1.27417,0,0,1,.45313.76953q.22852-.2395.44727-.42871a2.88827,2.88827,0,0,1,.44531-.31982,2.14625,2.14625,0,0,1,.4707-.20215,1.85554,1.85554,0,0,1,.52246-.07227,1.66516,1.66516,0,0,1,.73535.1416,1.12135,1.12135,0,0,1,.458.40479,1.716,1.716,0,0,1,.2373.63672,4.8254,4.8254,0,0,1,.06641.83643V18.97Z"
          style="fill:#ff943a"/>
    <path d="M290.78711,16.13553a4.93111,4.93111,0,0,1-.12793,1.12939,2.98807,2.98807,0,0,1-.39941.959,2.06272,2.06272,0,0,1-.69824.66357,2.00347,2.00347,0,0,1-1.02344.24756,2.26022,2.26022,0,0,1-.84668-.15723,2.50316,2.50316,0,0,1-.72461-.44482v2.5415h-1.14551V13.38113h1.08691v.55908a3.05226,3.05226,0,0,1,.78613-.519,2.245,2.245,0,0,1,.95117-.2002,2.0261,2.0261,0,0,1,.96094.21338,1.845,1.845,0,0,1,.666.59668,2.69652,2.69652,0,0,1,.38965.92188A5.24739,5.24739,0,0,1,290.78711,16.13553Zm-1.18262.02148a2.69044,2.69044,0,0,0-.3125-1.43359,1.01872,1.01872,0,0,0-.91895-.48975,1.52735,1.52735,0,0,0-.38574.05029,2.06789,2.06789,0,0,0-.376.13867,2.49211,2.49211,0,0,0-.3457.20264,2.42549,2.42549,0,0,0-.29883.24219V17.574a2.42734,2.42734,0,0,0,.2793.21045,2.22366,2.22366,0,0,0,.32324.17334,2.00742,2.00742,0,0,0,.35156.11719,1.59882,1.59882,0,0,0,.36719.04248,1.177,1.177,0,0,0,.50586-.11182,1.11258,1.11258,0,0,0,.41895-.34912,1.85282,1.85282,0,0,0,.28418-.60742A3.242,3.242,0,0,0,289.60449,16.157Z"
          style="fill:#ff943a"/>
    <path d="M295.69336,18.97v-.77246a4.15812,4.15812,0,0,1-.40723.35693,3.09389,3.09389,0,0,1-.46875.29834,2.8425,2.8425,0,0,1-.51172.20508,1.88559,1.88559,0,0,1-.53027.07715,2.014,2.014,0,0,1-.7832-.1333,1.17662,1.17662,0,0,1-.50293-.3916,1.64012,1.64012,0,0,1-.26953-.63379,4.19713,4.19713,0,0,1-.08008-.86035V13.38113h1.14551v3.186q0,.42114.02734.71143a1.3998,1.3998,0,0,0,.11133.46875.53349.53349,0,0,0,.24512.2583.94639.94639,0,0,0,.4209.08008,1.16179,1.16179,0,0,0,.376-.06934,2.63943,2.63943,0,0,0,.41016-.18652,3.54594,3.54594,0,0,0,.418-.27441q.208-.15674.39941-.333V13.38113h1.14551V18.97Z"
          style="fill:#ff943a"/>
    <path d="M301.458,18.97a3.65857,3.65857,0,0,1-.541.12012,3.90179,3.90179,0,0,1-.57227.04492,2.44723,2.44723,0,0,1-.78027-.10889,1.23079,1.23079,0,0,1-.52832-.33594,1.39548,1.39548,0,0,1-.30078-.57812,3.201,3.201,0,0,1-.0957-.83105V14.31326h-.751v-.93213h.751V11.82547h1.14551v1.55566h1.35352v.93213h-1.35352v2.792a3.16867,3.16867,0,0,0,.03418.50342.91468.91468,0,0,0,.11523.333.46888.46888,0,0,0,.21.18652.774.774,0,0,0,.31738.05859,1.85434,1.85434,0,0,0,.39453-.04541,2.16586,2.16586,0,0,0,.3623-.10889Z"
          style="fill:#ff943a"/>
    <path d="M305.71,18.97v-.63379a3.94191,3.94191,0,0,1-.834.5752,2.21726,2.21726,0,0,1-1.71289.0957,1.52334,1.52334,0,0,1-.55371-.35937,1.555,1.555,0,0,1-.34082-.54883,2.00735,2.00735,0,0,1-.11719-.70068,1.90479,1.90479,0,0,1,.168-.84717,1.48848,1.48848,0,0,1,.46289-.55664,2.10215,2.10215,0,0,1,.70313-.3252,5.62176,5.62176,0,0,1,.89258-.15723l1.2793-.12256v-.26074a1.13284,1.13284,0,0,0-.083-.46094.71421.71421,0,0,0-.23926-.2959.9993.9993,0,0,0-.38965-.15723,2.78128,2.78128,0,0,0-.52441-.04492,2.02023,2.02023,0,0,0-.49316.05322,1.52365,1.52365,0,0,0-.36426.13867.9966.9966,0,0,0-.25586.19434,1.10223,1.10223,0,0,0-.16016.21582l-.90527-.58105a1.54669,1.54669,0,0,1,.2793-.354,1.82337,1.82337,0,0,1,.44434-.30908,2.77383,2.77383,0,0,1,.63184-.22119,3.745,3.745,0,0,1,.84473-.08545,4.8907,4.8907,0,0,1,1.02832.09619,1.85336,1.85336,0,0,1,.7373.31982,1.362,1.362,0,0,1,.44531.59912,2.5441,2.5441,0,0,1,.14941.93506V18.97Zm-.05273-2.71729-.7998.07471a4.44008,4.44008,0,0,0-.65234.10107,1.61669,1.61669,0,0,0-.47949.19189.83606.83606,0,0,0-.2959.30615.92408.92408,0,0,0-.10156.4502.74827.74827,0,0,0,.23535.62646,1.04629,1.04629,0,0,0,.66016.18359,1.10036,1.10036,0,0,0,.34375-.05859,2.47191,2.47191,0,0,0,.3623-.1543,3.17946,3.17946,0,0,0,.36719-.22656q.18457-.13037.36035-.27441Z"
          style="fill:#ff943a"/>
    <path d="M311.32031,18.97a3.65857,3.65857,0,0,1-.541.12012,3.90179,3.90179,0,0,1-.57227.04492,2.44723,2.44723,0,0,1-.78027-.10889,1.23078,1.23078,0,0,1-.52832-.33594,1.39548,1.39548,0,0,1-.30078-.57812,3.201,3.201,0,0,1-.0957-.83105V14.31326h-.751v-.93213h.751V11.82547h1.14551v1.55566H311.001v.93213h-1.35352v2.792a3.16867,3.16867,0,0,0,.03418.50342.91468.91468,0,0,0,.11523.333.46888.46888,0,0,0,.21.18652.774.774,0,0,0,.31738.05859,1.85434,1.85434,0,0,0,.39453-.04541,2.16586,2.16586,0,0,0,.3623-.10889Z"
          style="fill:#ff943a"/>
    <path d="M313.542,11.91043a.59792.59792,0,0,1-.168.48779.81942.81942,0,0,1-.51953.13574.70347.70347,0,0,1-.53027-.15967.66422.66422,0,0,1-.14648-.46387.63054.63054,0,0,1,.15527-.47656.74634.74634,0,0,1,.52148-.14648.78124.78124,0,0,1,.52734.14355A.6164.6164,0,0,1,313.542,11.91043ZM312.29,18.97V13.38113h1.14551V18.97Z"
          style="fill:#ff943a"/>
    <path d="M319.96777,16.18875a4.715,4.715,0,0,1-.14648,1.22559,2.45939,2.45939,0,0,1-.458.92676,2.02208,2.02208,0,0,1-.79687.58887,3.40113,3.40113,0,0,1-2.333-.00244,2.03252,2.03252,0,0,1-.80176-.59131,2.46664,2.46664,0,0,1-.459-.92725,5.17061,5.17061,0,0,1,.00293-2.45605,2.51986,2.51986,0,0,1,.46094-.93506,2.00859,2.00859,0,0,1,.79883-.59131,3.00991,3.00991,0,0,1,1.16992-.20557,2.97078,2.97078,0,0,1,1.16113.20557,2.0089,2.0089,0,0,1,.79688.59131,2.48645,2.48645,0,0,1,.458.93506A4.79636,4.79636,0,0,1,319.96777,16.18875Zm-1.1875,0a2.71166,2.71166,0,0,0-.32227-1.481,1.17222,1.17222,0,0,0-1.05273-.48486,1.19671,1.19671,0,0,0-1.0625.48486,2.63549,2.63549,0,0,0-.333,1.481,2.64182,2.64182,0,0,0,.32715,1.46,1.19063,1.19063,0,0,0,1.06836.49023,1.16839,1.16839,0,0,0,1.04688-.49023A2.64113,2.64113,0,0,0,318.78027,16.18875Z"
          style="fill:#ff943a"/>
    <path d="M324.92285,18.97V15.784c0-.27734-.00879-.51221-.02637-.70605a1.40056,1.40056,0,0,0-.11523-.47168.5451.5451,0,0,0-.24707-.26074.96223.96223,0,0,0-.42676-.08008,1.13895,1.13895,0,0,0-.375.06934,2.31351,2.31351,0,0,0-.40527.189,4.21457,4.21457,0,0,0-.41309.27734q-.208.15674-.39941.32764V18.97h-1.14551V13.38113h1.14551V14.159a4.047,4.047,0,0,1,.40527-.35156,3.3472,3.3472,0,0,1,.4707-.30127,2.77614,2.77614,0,0,1,.51172-.20752,1.86874,1.86874,0,0,1,.53027-.07764,2.014,2.014,0,0,1,.7832.1333,1.17742,1.17742,0,0,1,.50391.3916,1.63008,1.63008,0,0,1,.26855.63428,4.12976,4.12976,0,0,1,.08008.86035V18.97Z"
          style="fill:#ff943a"/>
    <path d="M330.9375,18.97v-.63379a3.94191,3.94191,0,0,1-.834.5752,2.21726,2.21726,0,0,1-1.71289.0957,1.52334,1.52334,0,0,1-.55371-.35937,1.555,1.555,0,0,1-.34082-.54883,2.00735,2.00735,0,0,1-.11719-.70068,1.90479,1.90479,0,0,1,.168-.84717,1.48848,1.48848,0,0,1,.46289-.55664,2.10215,2.10215,0,0,1,.70313-.3252,5.62177,5.62177,0,0,1,.89258-.15723l1.2793-.12256v-.26074a1.13284,1.13284,0,0,0-.083-.46094.71421.71421,0,0,0-.23926-.2959.9993.9993,0,0,0-.38965-.15723,2.78128,2.78128,0,0,0-.52441-.04492,2.02023,2.02023,0,0,0-.49316.05322,1.52365,1.52365,0,0,0-.36426.13867.9966.9966,0,0,0-.25586.19434,1.10223,1.10223,0,0,0-.16016.21582l-.90527-.58105a1.54669,1.54669,0,0,1,.2793-.354,1.82337,1.82337,0,0,1,.44434-.30908,2.77383,2.77383,0,0,1,.63184-.22119,3.745,3.745,0,0,1,.84473-.08545,4.8907,4.8907,0,0,1,1.02832.09619,1.85336,1.85336,0,0,1,.7373.31982,1.362,1.362,0,0,1,.44531.59912,2.5441,2.5441,0,0,1,.14941.93506V18.97Zm-.05273-2.71729-.7998.07471a4.44008,4.44008,0,0,0-.65234.10107,1.61669,1.61669,0,0,0-.47949.19189.83606.83606,0,0,0-.2959.30615.92408.92408,0,0,0-.10156.4502.74827.74827,0,0,0,.23535.62646,1.04629,1.04629,0,0,0,.66016.18359,1.10036,1.10036,0,0,0,.34375-.05859,2.47191,2.47191,0,0,0,.3623-.1543,3.17946,3.17946,0,0,0,.36719-.22656q.18457-.13037.36035-.27441Z"
          style="fill:#ff943a"/>
    <path d="M333.6875,18.97V11.03689H334.833V18.97Z" style="fill:#ff943a"/>
    <path d="M265.92676,24.93981a.59792.59792,0,0,1-.168.48779.81942.81942,0,0,1-.51953.13574.70347.70347,0,0,1-.53027-.15967.66422.66422,0,0,1-.14648-.46387.63054.63054,0,0,1,.15527-.47656.74634.74634,0,0,1,.52148-.14648.78124.78124,0,0,1,.52734.14355A.6164.6164,0,0,1,265.92676,24.93981Zm-1.252,7.05957V26.41051h1.14551v5.58887Z"
          style="fill:#ff943a"/>
    <path d="M271.05273,31.99938v-3.186c0-.27734-.00879-.51221-.02637-.70605a1.40056,1.40056,0,0,0-.11523-.47168.5451.5451,0,0,0-.24707-.26074.96223.96223,0,0,0-.42676-.08008,1.13895,1.13895,0,0,0-.375.06934,2.31351,2.31351,0,0,0-.40527.189,4.21457,4.21457,0,0,0-.41309.27734q-.208.15674-.39941.32764v3.84131H267.499V26.41051h1.14551v.77783a4.047,4.047,0,0,1,.40527-.35156,3.34721,3.34721,0,0,1,.4707-.30127,2.77614,2.77614,0,0,1,.51172-.20752,1.86874,1.86874,0,0,1,.53027-.07764,2.014,2.014,0,0,1,.7832.1333,1.17742,1.17742,0,0,1,.50391.3916,1.63009,1.63009,0,0,1,.26855.63428,4.12977,4.12977,0,0,1,.08008.86035v3.72949Z"
          style="fill:#ff943a"/>
    <path d="M276.77441,31.99938a3.65858,3.65858,0,0,1-.541.12012,3.90179,3.90179,0,0,1-.57227.04492,2.44723,2.44723,0,0,1-.78027-.10889,1.23078,1.23078,0,0,1-.52832-.33594,1.39548,1.39548,0,0,1-.30078-.57812,3.201,3.201,0,0,1-.0957-.83105V27.34264h-.751v-.93213h.751V24.85485h1.14551v1.55566h1.35352v.93213h-1.35352v2.792a3.16866,3.16866,0,0,0,.03418.50342.91468.91468,0,0,0,.11523.333.46888.46888,0,0,0,.21.18652.774.774,0,0,0,.31738.05859,1.85434,1.85434,0,0,0,.39453-.04541,2.16586,2.16586,0,0,0,.3623-.10889Z"
          style="fill:#ff943a"/>
    <path d="M278.58594,29.44714a3.11323,3.11323,0,0,0,.08789.74365,1.37812,1.37812,0,0,0,.25781.53809,1.10829,1.10829,0,0,0,.45605.32764,1.87019,1.87019,0,0,0,.68945.11182,1.663,1.663,0,0,0,.67969-.13086,1.46023,1.46023,0,0,0,.5459-.44482l.87891.59668a2.30207,2.30207,0,0,1-.35645.4209,1.7909,1.7909,0,0,1-.459.30371,2.485,2.485,0,0,1-.59375.18652,4.01679,4.01679,0,0,1-.75879.064,2.47,2.47,0,0,1-1.97461-.73779,3.251,3.251,0,0,1-.63672-2.17627,5.12046,5.12046,0,0,1,.13672-1.228,2.51739,2.51739,0,0,1,.43652-.9458,1.97836,1.97836,0,0,1,.78613-.61035,2.91935,2.91935,0,0,1,1.1875-.21582,2.72368,2.72368,0,0,1,1.06348.18652,1.81734,1.81734,0,0,1,.71582.52783,2.14827,2.14827,0,0,1,.40527.82031,4.12545,4.12545,0,0,1,.12793,1.06006v.60205Zm2.541-.8418a1.667,1.667,0,0,0-.293-1.063,1.11258,1.11258,0,0,0-.92187-.36475,1.43355,1.43355,0,0,0-.5459.09326.96589.96589,0,0,0-.37891.27441,1.39318,1.39318,0,0,0-.24219.44775,3.33405,3.33405,0,0,0-.13867.6123Z"
          style="fill:#ff943a"/>
    <path d="M283.63672,31.99938V24.06628h1.14551v7.93311Z" style="fill:#ff943a"/>
    <path d="M286.50879,31.99938V24.06628h1.14551v7.93311Z" style="fill:#ff943a"/>
    <path d="M290.61133,24.93981a.59792.59792,0,0,1-.168.48779.81942.81942,0,0,1-.51953.13574.70347.70347,0,0,1-.53027-.15967.66422.66422,0,0,1-.14648-.46387.63054.63054,0,0,1,.15527-.47656.74634.74634,0,0,1,.52148-.14648.78124.78124,0,0,1,.52734.14355A.6164.6164,0,0,1,290.61133,24.93981Zm-1.252,7.05957V26.41051h1.14551v5.58887Z"
          style="fill:#ff943a"/>
    <path d="M296.86035,31.89294a2.88259,2.88259,0,0,1-.14941.9751,1.59453,1.59453,0,0,1-.46875.68994,2.07716,2.07716,0,0,1-.82031.41016,4.63319,4.63319,0,0,1-1.19824.13574,4.911,4.911,0,0,1-1.1748-.13037,3.61819,3.61819,0,0,1-.94629-.37061l.373-.92676a3.93961,3.93961,0,0,0,.79688.32227,3.42014,3.42014,0,0,0,.95117.125,2.90762,2.90762,0,0,0,.68652-.06934,1.14194,1.14194,0,0,0,.46094-.21533.85246.85246,0,0,0,.26172-.38135,1.7156,1.7156,0,0,0,.082-.56445v-.55957a2.72293,2.72293,0,0,1-.73535.47705,2.24688,2.24688,0,0,1-.93164.189,2.08958,2.08958,0,0,1-.96777-.21045,1.82806,1.82806,0,0,1-.6709-.58887,2.61925,2.61925,0,0,1-.38867-.90039,4.90613,4.90613,0,0,1-.126-1.15088,4.57392,4.57392,0,0,1,.126-1.07617,2.77064,2.77064,0,0,1,.39941-.92676,2.06035,2.06035,0,0,1,.71387-.65039,2.30607,2.30607,0,0,1,1.92578-.06641,2.52349,2.52349,0,0,1,.73535.47705l.085-.49561h.98047Zm-1.14551-4.0708a2.57708,2.57708,0,0,0-.626-.40723,1.67478,1.67478,0,0,0-.70605-.15186,1.087,1.087,0,0,0-.55664.14111,1.268,1.268,0,0,0-.41016.38867,1.82641,1.82641,0,0,0-.25293.58887,3.08463,3.08463,0,0,0-.085.74609,3.826,3.826,0,0,0,.06934.76416,1.81521,1.81521,0,0,0,.21484.58643,1.05305,1.05305,0,0,0,.37891.37549,1.09752,1.09752,0,0,0,.55664.1333,1.68372,1.68372,0,0,0,.72754-.17041,2.94266,2.94266,0,0,0,.68945-.46387Z"
          style="fill:#ff943a"/>
    <path d="M299.43945,29.44714a3.11322,3.11322,0,0,0,.08789.74365,1.37812,1.37812,0,0,0,.25781.53809,1.10829,1.10829,0,0,0,.45605.32764,1.87019,1.87019,0,0,0,.68945.11182,1.663,1.663,0,0,0,.67969-.13086,1.46023,1.46023,0,0,0,.5459-.44482l.87891.59668a2.30207,2.30207,0,0,1-.35645.4209,1.7909,1.7909,0,0,1-.459.30371,2.485,2.485,0,0,1-.59375.18652,4.01679,4.01679,0,0,1-.75879.064,2.47,2.47,0,0,1-1.97461-.73779,3.251,3.251,0,0,1-.63672-2.17627,5.12046,5.12046,0,0,1,.13672-1.228,2.51739,2.51739,0,0,1,.43652-.9458,1.97836,1.97836,0,0,1,.78613-.61035,2.91936,2.91936,0,0,1,1.1875-.21582,2.72368,2.72368,0,0,1,1.06348.18652,1.81734,1.81734,0,0,1,.71582.52783,2.14827,2.14827,0,0,1,.40527.82031,4.12545,4.12545,0,0,1,.12793,1.06006v.60205Zm2.541-.8418a1.667,1.667,0,0,0-.293-1.063,1.11258,1.11258,0,0,0-.92187-.36475,1.43355,1.43355,0,0,0-.5459.09326.96589.96589,0,0,0-.37891.27441,1.39318,1.39318,0,0,0-.24219.44775,3.33405,3.33405,0,0,0-.13867.6123Z"
          style="fill:#ff943a"/>
    <path d="M308.02246,31.99938v-3.186c0-.27734-.00879-.51221-.02637-.70605a1.40056,1.40056,0,0,0-.11523-.47168.5451.5451,0,0,0-.24707-.26074.96223.96223,0,0,0-.42676-.08008,1.13895,1.13895,0,0,0-.375.06934,2.31351,2.31351,0,0,0-.40527.189,4.21457,4.21457,0,0,0-.41309.27734q-.208.15674-.39941.32764v3.84131h-1.14551V26.41051h1.14551v.77783a4.047,4.047,0,0,1,.40527-.35156,3.34721,3.34721,0,0,1,.4707-.30127,2.77614,2.77614,0,0,1,.51172-.20752,1.86874,1.86874,0,0,1,.53027-.07764,2.014,2.014,0,0,1,.7832.1333,1.17742,1.17742,0,0,1,.50391.3916,1.63008,1.63008,0,0,1,.26855.63428,4.12976,4.12976,0,0,1,.08008.86035v3.72949Z"
          style="fill:#ff943a"/>
    <path d="M315.21484,31.16833a2.32953,2.32953,0,0,1-.34082.4126,1.88633,1.88633,0,0,1-.44531.31445,2.28456,2.28456,0,0,1-.5752.19971,3.42865,3.42865,0,0,1-.72168.06934,3.02936,3.02936,0,0,1-1.19922-.21289,2.07063,2.07063,0,0,1-.80957-.60205,2.45825,2.45825,0,0,1-.458-.92725,5.03433,5.03433,0,0,1,.00781-2.42676,2.538,2.538,0,0,1,.46582-.9375,2.084,2.084,0,0,1,.7998-.59717,3.2294,3.2294,0,0,1,2.38086.03467,1.85354,1.85354,0,0,1,.82129.74609l-.89551.60205a1.30089,1.30089,0,0,0-.458-.43945,1.39385,1.39385,0,0,0-.6875-.15186,1.20777,1.20777,0,0,0-1.05762.47656,2.62725,2.62725,0,0,0-.33789,1.5,4.14333,4.14333,0,0,0,.07422.83105,1.66316,1.66316,0,0,0,.24219.60742,1.07816,1.07816,0,0,0,.44531.373,1.60485,1.60485,0,0,0,.67676.12793,1.96647,1.96647,0,0,0,.34863-.0293,1.19173,1.19173,0,0,0,.30664-.09863,1.20805,1.20805,0,0,0,.27148-.18115,1.754,1.754,0,0,0,.25-.27686Z"
          style="fill:#ff943a"/>
    <path d="M317.2666,29.44714a3.11322,3.11322,0,0,0,.08789.74365,1.37812,1.37812,0,0,0,.25781.53809,1.10829,1.10829,0,0,0,.45605.32764,1.87019,1.87019,0,0,0,.68945.11182,1.663,1.663,0,0,0,.67969-.13086,1.46023,1.46023,0,0,0,.5459-.44482l.87891.59668a2.30207,2.30207,0,0,1-.35645.4209,1.7909,1.7909,0,0,1-.459.30371,2.485,2.485,0,0,1-.59375.18652,4.01679,4.01679,0,0,1-.75879.064,2.47,2.47,0,0,1-1.97461-.73779,3.251,3.251,0,0,1-.63672-2.17627,5.12046,5.12046,0,0,1,.13672-1.228,2.51739,2.51739,0,0,1,.43652-.9458,1.97836,1.97836,0,0,1,.78613-.61035,2.91936,2.91936,0,0,1,1.1875-.21582,2.72368,2.72368,0,0,1,1.06348.18652,1.81734,1.81734,0,0,1,.71582.52783,2.14827,2.14827,0,0,1,.40527.82031,4.12545,4.12545,0,0,1,.12793,1.06006v.60205Zm2.541-.8418a1.667,1.667,0,0,0-.293-1.063,1.11258,1.11258,0,0,0-.92187-.36475,1.43355,1.43355,0,0,0-.5459.09326.96588.96588,0,0,0-.37891.27441,1.39318,1.39318,0,0,0-.24219.44775,3.33405,3.33405,0,0,0-.13867.6123Z"
          style="fill:#ff943a"/>
    <path d="M322.77485,30.34991v1.556H322.499v-1.556h-.5201v-.28313h1.31607v.28313Z" style="fill:#ff943a"/>
    <path d="M324.70238,31.90588V30.52655l-.41879.89432H324.119l-.417-.89432v1.37933h-.26231V30.06677h.33738l.42874.93823.43145-.93823h.33015v1.83911Z"
          style="fill:#ff943a"/>
</svg>
